<svg width="81" height="81" xmlns="http://www.w3.org/2000/svg" xmlns:xlink="http://www.w3.org/1999/xlink" xml:space="preserve" overflow="hidden"><g transform="translate(-68 -533)"><g><g><g><g><path d="M130.667 584.75 127 584.75 127 583.25 130.667 583.25C134.855 583.25 138.25 579.855 138.25 575.667 138.25 571.479 134.855 568.083 130.667 568.083 128.99 568.089 127.364 568.656 126.048 569.696 125.72 569.95 125.249 569.89 124.995 569.562 124.908 569.45 124.854 569.314 124.841 569.172 124.023 560.427 116.271 554.001 107.526 554.819 101.39 555.393 96.1378 559.46 94.0469 565.258 93.9065 565.647 93.4772 565.849 93.0881 565.708 93.0634 565.699 93.0392 565.689 93.0157 565.678 91.765 565.067 90.3917 564.75 89 564.75 83.8914 564.75 79.75 568.891 79.75 574 79.75 579.109 83.8914 583.25 89 583.25L91 583.25 91 584.75 89 584.75C83.0629 584.75 78.25 579.937 78.25 574 78.25 568.063 83.0629 563.25 89 563.25 90.3444 563.249 91.6767 563.504 92.9258 564.001 96.6001 555.119 106.779 550.897 115.661 554.572 121.216 556.87 125.192 561.872 126.177 567.802 127.539 567.004 129.089 566.584 130.667 566.583 135.684 566.583 139.75 570.65 139.75 575.667 139.75 580.683 135.684 584.75 130.667 584.75Z" fill="#000000" fill-rule="nonzero" fill-opacity="1"/><path d="M103 594.75 102.777 594.75C101.382 594.748 100.251 593.617 100.25 592.222L100.25 579.778C100.251 578.383 101.382 577.252 102.777 577.25L115.223 577.25C116.618 577.252 117.749 578.383 117.75 579.778L117.75 580 116.25 580 116.25 579.778C116.249 579.211 115.79 578.751 115.223 578.75L102.777 578.75C102.21 578.751 101.751 579.211 101.75 579.778L101.75 592.222C101.751 592.789 102.21 593.249 102.777 593.25L103 593.25Z" fill="#000000" fill-rule="nonzero" fill-opacity="1"/><path d="M97 588.694 96.7773 588.694C95.3838 588.694 94.2533 587.566 94.25 586.173L94.25 573.771C94.2533 572.378 95.3838 571.25 96.7773 571.25L109.223 571.25C110.616 571.25 111.747 572.378 111.75 573.771L111.75 574 110.25 574 110.25 573.771C110.248 573.206 109.788 572.749 109.223 572.75L96.7773 572.75C96.2118 572.749 95.7522 573.206 95.75 573.771L95.75 586.173C95.7522 586.738 96.2118 587.195 96.7773 587.194L97 587.194Z" fill="#000000" fill-rule="nonzero" fill-opacity="1"/><path d="M121.021 600.75 108.979 600.75C107.473 600.748 106.252 599.528 106.25 598.021L106.25 585.979C106.252 584.472 107.473 583.252 108.979 583.25L121.021 583.25C122.527 583.252 123.748 584.472 123.75 585.979L123.75 598.021C123.748 599.528 122.527 600.748 121.021 600.75ZM108.979 584.75C108.301 584.751 107.751 585.3 107.75 585.979L107.75 598.021C107.751 598.7 108.301 599.249 108.979 599.25L121.021 599.25C121.699 599.249 122.249 598.7 122.25 598.021L122.25 585.979C122.249 585.3 121.699 584.751 121.021 584.75Z" fill="#000000" fill-rule="nonzero" fill-opacity="1"/></g></g></g></g></g></svg>