<svg width="80" height="80" xmlns="http://www.w3.org/2000/svg" xmlns:xlink="http://www.w3.org/1999/xlink" xml:space="preserve" overflow="hidden"><g transform="translate(-332 -124)"><g><path d="M402.53 193.47 384.004 174.944C393.383 164.98 392.909 149.3 382.945 139.921 372.981 130.543 357.301 131.017 347.922 140.981 338.544 150.945 339.018 166.625 348.982 176.003 358.522 184.983 373.404 184.983 382.944 176.004L401.47 194.53ZM382.44 174.44C373.361 183.511 358.647 183.504 349.576 174.424 340.505 165.344 340.512 150.63 349.592 141.56 358.665 132.495 373.367 132.495 382.44 141.56 391.505 150.646 391.505 165.354 382.44 174.44Z" fill="#000000" fill-rule="nonzero" fill-opacity="1"/><path d="M377 165.25C376.979 165.25 376.959 165.256 376.937 165.256L374.527 154.417C376.417 153.576 377.267 151.362 376.426 149.473 375.585 147.583 373.371 146.732 371.482 147.574 370.635 147.95 369.959 148.627 369.582 149.473L358.744 147.063C358.744 147.041 358.75 147.021 358.75 147 358.75 144.929 357.071 143.25 355 143.25 352.929 143.25 351.25 144.929 351.25 147 351.25 148.782 352.504 150.318 354.25 150.674L354.25 155.326C352.221 155.74 350.912 157.721 351.326 159.75 351.682 161.496 353.218 162.75 355 162.75 355.423 162.746 355.841 162.669 356.238 162.523L358.475 166.246C356.951 167.643 356.848 170.012 358.245 171.536 359.642 173.06 362.011 173.163 363.535 171.766 364.118 171.231 364.517 170.525 364.674 169.75L373.326 169.75C373.74 171.779 375.721 173.088 377.75 172.674 379.779 172.26 381.089 170.279 380.674 168.25 380.318 166.504 378.782 165.25 377 165.25ZM373 148.75C374.243 148.75 375.25 149.757 375.25 151 375.25 152.243 374.243 153.25 373 153.25 371.757 153.25 370.75 152.243 370.75 151 370.751 149.758 371.758 148.751 373 148.75ZM369.957 153.175C370.072 153.339 370.199 153.493 370.338 153.637L367.283 158.223 364.61 155.55ZM358.658 158.193 363.141 156.202 366.435 159.496 364.452 162.472 358.649 159.834C358.781 159.295 358.784 158.733 358.658 158.193ZM358.418 148.527 369.256 150.937C369.256 150.959 369.25 150.979 369.25 151 369.251 151.271 369.283 151.542 369.342 151.807L363.474 154.413 358.125 149.065C358.237 148.894 358.335 148.714 358.418 148.527ZM362.005 155.065 358.043 156.825C357.495 156.054 356.676 155.519 355.75 155.326L355.75 150.674C356.22 150.577 356.666 150.391 357.065 150.125ZM352.75 147C352.75 145.757 353.757 144.75 355 144.75 356.243 144.75 357.25 145.757 357.25 147 357.25 148.243 356.243 149.25 355 149.25 353.758 149.249 352.751 148.242 352.75 147ZM355 161.25C353.757 161.25 352.75 160.243 352.75 159 352.75 157.757 353.757 156.75 355 156.75 356.243 156.75 357.25 157.757 357.25 159 357.249 160.242 356.242 161.249 355 161.25ZM361 171.25C359.757 171.25 358.75 170.243 358.75 169 358.75 167.757 359.757 166.75 361 166.75 362.243 166.75 363.25 167.757 363.25 169 363.249 170.242 362.242 171.249 361 171.25ZM362.414 165.531C361.569 165.176 360.621 165.156 359.762 165.477L357.525 161.754C357.71 161.585 357.877 161.399 358.024 161.198L363.61 163.737ZM373.326 168.25 364.674 168.25C364.527 167.536 364.176 166.88 363.662 166.363L364.992 164.366 373.351 168.166C373.345 168.195 373.332 168.221 373.326 168.25ZM365.835 163.101 367.517 160.577 373.547 166.607ZM368.365 159.304 371.586 154.469C372.034 154.654 372.515 154.749 373 154.75 373.021 154.75 373.041 154.744 373.063 154.744L375.473 165.583C375.286 165.665 375.106 165.763 374.935 165.875ZM377 171.25C375.757 171.25 374.75 170.243 374.75 169 374.75 167.757 375.757 166.75 377 166.75 378.243 166.75 379.25 167.757 379.25 169 379.249 170.242 378.242 171.249 377 171.25Z" fill="#000000" fill-rule="nonzero" fill-opacity="1"/></g></g></svg>