<svg width="82" height="82" xmlns="http://www.w3.org/2000/svg" xmlns:xlink="http://www.w3.org/1999/xlink" xml:space="preserve" overflow="hidden"><g transform="translate(-466 -254)"><g><g><g><g><path d="M499.398 301.398 500.459 302.459C504.074 298.853 509.926 298.853 513.541 302.459L514.602 301.398C510.401 297.207 503.599 297.207 499.398 301.398Z" fill="#414244" fill-rule="nonzero" fill-opacity="1"/><path d="M503.398 305.742 504.459 306.802C505.864 305.402 508.136 305.402 509.541 306.802L510.602 305.742C508.611 303.756 505.389 303.756 503.398 305.742Z" fill="#414244" fill-rule="nonzero" fill-opacity="1"/><path d="M494.47 297.44 495.53 298.501C501.865 292.166 512.135 292.166 518.469 298.501 518.47 298.501 518.47 298.501 518.47 298.501L519.53 297.44C512.61 290.52 501.391 290.52 494.47 297.44 494.47 297.44 494.47 297.44 494.47 297.44Z" fill="#414244" fill-rule="nonzero" fill-opacity="1"/><path d="M507 264.25C498.858 264.259 492.259 270.858 492.25 279L492.25 285.701C482.684 293.847 481.533 308.205 489.68 317.771 497.826 327.337 512.184 328.488 521.75 320.341 531.316 312.195 532.467 297.837 524.32 288.271 523.534 287.347 522.674 286.487 521.75 285.701L521.75 279C521.741 270.858 515.142 264.259 507 264.25ZM493.75 279C493.75 271.682 499.682 265.75 507 265.75 514.318 265.75 520.25 271.682 520.25 279L520.25 284.524C512.336 278.825 501.664 278.825 493.75 284.524ZM528.25 303C528.25 314.736 518.736 324.25 507 324.25 495.264 324.25 485.75 314.736 485.75 303 485.75 291.264 495.264 281.75 507 281.75 518.731 281.763 528.237 291.269 528.25 303Z" fill="#414244" fill-rule="nonzero" fill-opacity="1"/><path d="M508 311C508 311.552 507.552 312 507 312 506.448 312 506 311.552 506 311 506 310.448 506.448 310 507 310 507.552 310 508 310.448 508 311Z" fill="#414244" fill-rule="nonzero" fill-opacity="1"/></g></g></g></g></g></svg>