<svg width="81" height="80" xmlns="http://www.w3.org/2000/svg" xmlns:xlink="http://www.w3.org/1999/xlink" xml:space="preserve" overflow="hidden"><g transform="translate(-601 -124)"><g><g><g><g><path d="M611.25 168C611.248 171.726 614.267 174.748 617.993 174.75 619.125 174.751 620.24 174.466 621.234 173.923L627.543 182.944C624.748 185.407 624.479 189.669 626.941 192.464 629.404 195.259 633.666 195.528 636.461 193.066 637.72 191.956 638.521 190.418 638.706 188.75L659.294 188.75C659.709 192.454 663.048 195.121 666.752 194.706 670.456 194.291 673.123 190.952 672.708 187.248 672.326 183.832 669.437 181.249 666 181.25 665.803 181.25 665.61 181.263 665.417 181.279L660.054 154.428C663.605 153.294 665.564 149.497 664.43 145.946 663.297 142.395 659.499 140.436 655.948 141.57 653.867 142.234 652.237 143.865 651.572 145.946L624.72 140.583C624.737 140.391 624.75 140.197 624.75 140 624.751 136.272 621.73 133.249 618.002 133.248 614.274 133.246 611.251 136.267 611.25 139.995 611.249 143.434 613.833 146.324 617.25 146.706L617.25 161.294C613.836 161.68 611.255 164.565 611.25 168ZM622.457 173.056C624.555 171.225 625.301 168.288 624.33 165.678L636.519 159.579 644.434 167.495 635.023 181.973C633.048 180.973 630.707 181.012 628.766 182.077ZM623.661 164.336C622.562 162.638 620.76 161.521 618.75 161.294L618.75 146.706C620.016 146.564 621.215 146.066 622.208 145.269L635.401 158.462ZM632 193.25C629.101 193.25 626.75 190.9 626.75 188 626.75 185.1 629.101 182.75 632 182.75 634.899 182.75 637.25 185.1 637.25 188 637.247 190.898 634.898 193.247 632 193.25ZM659.294 187.25 638.706 187.25C638.51 185.504 637.641 183.902 636.283 182.787L645.518 168.579 660.731 183.792C659.934 184.785 659.435 185.984 659.294 187.25ZM666 182.75C668.899 182.75 671.25 185.1 671.25 188 671.25 190.9 668.899 193.25 666 193.25 663.101 193.25 660.75 190.9 660.75 188 660.753 185.102 663.102 182.753 666 182.75ZM663.946 181.572C663.163 181.824 662.433 182.217 661.792 182.731L646.354 167.293 654.977 154.027C655.914 154.501 656.95 154.749 658 154.75 658.197 154.75 658.39 154.737 658.583 154.721ZM658 142.75C660.899 142.75 663.25 145.1 663.25 148 663.25 150.9 660.899 153.25 658 153.25 655.101 153.25 652.75 150.9 652.75 148 652.753 145.102 655.102 142.753 658 142.75ZM653.717 153.213 645.27 166.209 637.933 158.872 652.339 151.664C652.717 152.248 653.181 152.77 653.717 153.213ZM624.428 142.054 651.28 147.417C651.263 147.609 651.25 147.803 651.25 148 651.252 148.793 651.394 149.579 651.67 150.322L636.815 157.754 623.269 144.208C623.783 143.567 624.176 142.837 624.428 142.054ZM612.75 140C612.75 137.1 615.101 134.75 618 134.75 620.899 134.75 623.25 137.1 623.25 140 623.25 142.9 620.899 145.25 618 145.25 615.102 145.247 612.753 142.898 612.75 140ZM618 162.75C620.899 162.75 623.25 165.1 623.25 168 623.25 170.9 620.899 173.25 618 173.25 615.101 173.25 612.75 170.9 612.75 168 612.753 165.102 615.102 162.753 618 162.75Z" fill="#000000" fill-rule="nonzero" fill-opacity="1"/></g></g></g></g></g></svg>