<svg width="80" height="80" xmlns="http://www.w3.org/2000/svg" xmlns:xlink="http://www.w3.org/1999/xlink" xml:space="preserve" overflow="hidden"><g transform="translate(-468 -124)"><g><path d="M483 183.25C479.813 183.238 477.22 185.813 477.208 189 477.196 192.187 479.771 194.78 482.958 194.792 486.145 194.803 488.738 192.229 488.75 189.042 488.755 187.763 488.334 186.519 487.555 185.505L498.196 174.864C504.345 178.045 511.655 178.045 517.804 174.865L528.445 185.505C526.503 188.032 526.978 191.655 529.505 193.596 532.032 195.538 535.655 195.063 537.597 192.536 539.538 190.009 539.064 186.386 536.536 184.445 534.463 182.852 531.578 182.852 529.505 184.444L519.85 174.79 519.851 174.79 519.171 174.11C523.083 171.701 526.338 168.36 528.644 164.386 528.785 164.148 528.785 163.852 528.644 163.614 526.338 159.64 523.083 156.299 519.171 153.89L529.505 143.555C532.032 145.497 535.655 145.023 537.597 142.495 539.539 139.968 539.064 136.345 536.537 134.403 534.01 132.461 530.387 132.936 528.445 135.463 526.852 137.536 526.852 140.421 528.444 142.495L517.804 153.135C511.655 149.955 504.345 149.955 498.196 153.135L487.555 142.495C489.497 139.968 489.022 136.345 486.495 134.404 483.968 132.462 480.345 132.937 478.403 135.464 476.462 137.991 476.936 141.614 479.464 143.555 481.537 145.148 484.422 145.148 486.495 143.556L496.15 153.21 496.149 153.21 496.829 153.89C492.917 156.299 489.663 159.64 487.356 163.614 487.215 163.852 487.215 164.148 487.356 164.386 489.663 168.36 492.917 171.701 496.829 174.11L486.495 184.444C485.494 183.67 484.265 183.25 483 183.25ZM533 184.75C535.347 184.75 537.25 186.653 537.25 189 537.25 191.347 535.347 193.25 533 193.25 530.653 193.25 528.75 191.347 528.75 189 528.753 186.654 530.654 184.753 533 184.75ZM533 134.75C535.347 134.75 537.25 136.653 537.25 139 537.25 141.347 535.347 143.25 533 143.25 530.653 143.25 528.75 141.347 528.75 139 528.753 136.654 530.654 134.753 533 134.75ZM483 143.25C480.653 143.25 478.75 141.347 478.75 139 478.75 136.653 480.653 134.75 483 134.75 485.347 134.75 487.25 136.653 487.25 139 487.247 141.346 485.346 143.247 483 143.25ZM508 152.25C515.545 152.25 522.492 156.526 527.122 164 524.901 167.709 521.79 170.806 518.071 173.01L514.689 169.629C517.803 165.939 517.336 160.424 513.646 157.311 510.39 154.563 505.627 154.563 502.371 157.311L499.318 154.258C502.024 152.943 504.992 152.257 508 152.25ZM503.435 158.375C506.538 155.85 511.101 156.319 513.625 159.422 515.792 162.085 515.792 165.902 513.625 168.565ZM512.565 169.625C509.462 172.15 504.899 171.681 502.375 168.578 500.208 165.915 500.208 162.098 502.375 159.435ZM488.878 164C491.099 160.291 494.21 157.194 497.929 154.99L501.311 158.371C498.197 162.061 498.664 167.576 502.354 170.689 505.61 173.437 510.373 173.437 513.629 170.689L516.682 173.742C513.976 175.057 511.008 175.743 508 175.75 500.455 175.75 493.508 171.474 488.878 164ZM483 193.25C480.653 193.25 478.75 191.347 478.75 189 478.75 186.653 480.653 184.75 483 184.75 485.347 184.75 487.25 186.653 487.25 189 487.247 191.346 485.346 193.247 483 193.25Z" fill="#414244" fill-rule="nonzero" fill-opacity="1"/></g></g></svg>