<svg width="82" height="80" xmlns="http://www.w3.org/2000/svg" xmlns:xlink="http://www.w3.org/1999/xlink" xml:space="preserve" overflow="hidden"><g transform="translate(-66 -124)"><g><g><g><g><path d="M97 185.25 97 186.75C101.308 186.75 104.491 184.579 106.73 180.114L106.061 179.777 106.731 180.114 107.628 178.326 106.286 177.653 105.39 179.441 105.391 179.441C103.429 183.35 100.686 185.25 97 185.25Z" fill="#000000" fill-rule="nonzero" fill-opacity="1"/><path d="M95 178.75C97.5586 178.75 98.9922 177.7 100.477 174.739 102.294 171.152 106.675 169.718 110.261 171.536 112.698 172.771 114.239 175.267 114.25 177.999L115 178 114.25 178C114.124 181.499 112.788 184.846 110.47 187.47L108.47 189.47 109.53 190.53 111.575 188.481C114.174 185.598 115.654 181.88 115.75 178.001L115.75 178C115.734 173.151 111.789 169.233 106.94 169.25 103.64 169.261 100.626 171.121 99.1357 174.066 97.7783 176.773 96.7207 177.25 95 177.25Z" fill="#000000" fill-rule="nonzero" fill-opacity="1"/><path d="M95 182.75C100.999 182.75 101.988 180.734 103.627 177.394L104.052 176.533C104.857 174.928 106.812 174.28 108.416 175.086 109.521 175.64 110.215 176.772 110.209 178.008 110.237 180.744 108.488 184.883 104.582 187.506 103.415 188.287 102.135 188.885 100.787 189.281L101.213 190.719C102.706 190.281 104.124 189.617 105.418 188.751 109.811 185.803 111.742 181.223 111.709 178.001 111.714 175.377 109.591 173.246 106.967 173.241 105.167 173.237 103.52 174.251 102.712 175.86L102.28 176.733C100.713 179.928 100.064 181.25 95 181.25Z" fill="#000000" fill-rule="nonzero" fill-opacity="1"/><path d="M137.75 155.49C137.752 150.475 133.695 146.404 128.68 146.39 127.1 146.387 125.549 146.807 124.187 147.605 122.607 138.123 113.639 131.717 104.157 133.297 98.2284 134.285 93.2291 138.261 90.9326 143.815 85.4239 141.632 79.1883 144.327 77.0049 149.836 76.5035 151.101 76.2474 152.449 76.25 153.81 76.2429 156.383 77.173 158.869 78.8665 160.806 74.9875 165.29 75.4778 172.069 79.9616 175.948 81.9162 177.639 84.4154 178.568 87 178.564L91 178.564 91 177.064 87 177.064C81.8914 177.064 77.75 172.923 77.75 167.814 77.75 162.706 81.8914 158.564 87 158.564 88.3917 158.564 89.765 158.882 91.0156 159.492 91.388 159.673 91.836 159.517 92.0164 159.145 92.0278 159.121 92.038 159.097 92.0469 159.072 95.0266 150.81 104.14 146.528 112.402 149.508 118.2 151.598 122.267 156.851 122.841 162.987 122.879 163.4 123.245 163.703 123.658 163.664 123.8 163.651 123.935 163.598 124.048 163.51 125.364 162.471 126.99 161.903 128.667 161.898 132.855 161.898 136.25 165.293 136.25 169.481 136.25 173.669 132.855 177.064 128.667 177.064L123 177.064 123 178.564 128.667 178.564C133.682 178.566 137.748 174.503 137.75 169.488 137.751 166.777 136.541 164.208 134.45 162.482 136.539 160.762 137.75 158.197 137.75 155.49ZM133.145 161.588C131.781 160.808 130.238 160.398 128.667 160.398 127.089 160.398 125.539 160.819 124.177 161.617 122.602 152.135 113.638 145.725 104.156 147.3 98.2259 148.285 93.2238 152.26 90.9258 157.815 87.1887 156.334 82.9362 157.079 79.9248 159.742 78.5144 158.088 77.7429 155.984 77.75 153.81 77.7557 148.704 81.8937 144.566 87 144.56 88.3956 144.567 89.7722 144.885 91.0302 145.489 91.4052 145.665 91.8522 145.504 92.0286 145.129 92.0382 145.109 92.0469 145.088 92.0547 145.066 95.0369 136.803 104.153 132.523 112.416 135.505 118.211 137.596 122.277 142.846 122.853 148.98 122.891 149.393 123.257 149.696 123.669 149.657 123.813 149.644 123.949 149.589 124.062 149.5 125.375 148.457 127.003 147.889 128.68 147.89 132.866 147.895 136.255 151.293 136.25 155.479 136.247 157.894 135.094 160.163 133.145 161.588Z" fill="#000000" fill-rule="nonzero" fill-opacity="1"/><path d="M117.739 186.331C119.821 182.091 119.778 179.91 119.741 178 119.775 173.199 117.103 168.787 112.833 166.592 106.877 163.562 99.5905 165.789 96.3467 171.632L97.6533 172.368C100.503 167.228 106.91 165.265 112.15 167.927 115.922 169.871 118.277 173.772 118.241 178.015 118.277 179.854 118.314 181.756 116.394 185.669Z" fill="#000000" fill-rule="nonzero" fill-opacity="1"/></g></g></g></g></g></svg>