<svg width="81" height="81" xmlns="http://www.w3.org/2000/svg" xmlns:xlink="http://www.w3.org/1999/xlink" xml:space="preserve" overflow="hidden"><g transform="translate(-65 -124)"><g><g><g><g><path d="M106.014 134.25C89.0309 134.25 75.2637 148.017 75.2637 165 75.2637 181.983 89.0309 195.75 106.014 195.75 122.996 195.75 136.764 181.983 136.764 165 136.745 148.025 122.988 134.269 106.014 134.25ZM81.8428 148.549 83.5518 151.284C87.3708 157.432 93.247 162.027 100.135 164.25L76.7827 164.25C76.9182 158.638 78.6756 153.185 81.8428 148.549ZM76.7827 165.75 100.097 165.75C93.2246 167.978 87.3633 172.568 83.5518 178.705L81.8389 181.445C78.6741 176.811 76.9181 171.36 76.7827 165.75ZM106.014 194.25C96.9033 194.249 88.315 189.997 82.7896 182.754L84.8232 179.499C90.1457 170.924 99.5338 165.72 109.627 165.752L124.979 165.752 124.979 165.75 126.189 165.75 115.47 176.47 116.53 177.53 128.53 165.53C128.823 165.238 128.823 164.763 128.531 164.47 128.531 164.47 128.53 164.47 128.53 164.47L116.53 152.47 115.47 153.53 126.189 164.25 124.979 164.25 124.979 164.237 109.627 164.237C99.5337 164.269 90.1456 159.065 84.8232 150.489L82.7937 147.241C92.6056 134.413 110.959 131.968 123.787 141.78 136.615 151.592 139.06 169.945 129.248 182.773 123.714 190.009 115.123 194.252 106.014 194.25Z" fill="#000000" fill-rule="nonzero" fill-opacity="1"/></g></g></g></g></g></svg>