<svg width="80" height="80" xmlns="http://www.w3.org/2000/svg" xmlns:xlink="http://www.w3.org/1999/xlink" xml:space="preserve" overflow="hidden"><g transform="translate(-736 -264)"><g><path d="M763.25 286C763.25 293.042 768.958 298.75 776 298.75 783.042 298.75 788.75 293.042 788.75 286 788.75 278.958 783.042 273.25 776 273.25 768.962 273.258 763.258 278.962 763.25 286ZM787.25 286C787.25 292.213 782.213 297.25 776 297.25 769.787 297.25 764.75 292.213 764.75 286 764.75 279.787 769.787 274.75 776 274.75 782.21 274.757 787.243 279.79 787.25 286Z" fill="#414244" fill-rule="nonzero" fill-opacity="1"/><path d="M800.75 336 800.75 316C800.742 308.962 795.038 303.258 788 303.25L764 303.25C756.962 303.258 751.258 308.962 751.25 316L751.25 336 752.75 336 752.75 316C752.757 309.79 757.79 304.757 764 304.75L788 304.75C794.21 304.757 799.243 309.79 799.25 316L799.25 336Z" fill="#414244" fill-rule="nonzero" fill-opacity="1"/><path d="M787.47 309.47 782.632 314.308C779.465 310.605 773.896 310.172 770.194 313.339 766.491 316.506 766.058 322.075 769.225 325.777 772.392 329.479 777.961 329.913 781.663 326.746 784.921 323.959 785.703 319.232 783.517 315.544L788.53 310.53ZM776 327.25C771.996 327.253 768.747 324.01 768.744 320.006 768.741 316.002 771.984 312.753 775.989 312.75 778.146 312.748 780.193 313.708 781.571 315.368L776 320.939 772.53 317.47 771.47 318.53 775.47 322.53C775.762 322.823 776.237 322.823 776.53 322.531 776.53 322.53 776.53 322.53 776.53 322.53L782.419 316.641C784.279 320.181 782.917 324.559 779.377 326.419 778.335 326.966 777.176 327.251 776 327.25Z" fill="#414244" fill-rule="nonzero" fill-opacity="1"/></g></g></svg>